<svg width="512" height="512" xmlns="http://www.w3.org/2000/svg">

 <g>
  <title>background</title>
  <rect fill="none" id="canvas_background" height="402" width="582" y="-1" x="-1"/>
 </g>
 <g>
  <title>Layer 1</title>
  <path fill="#ffffff" id="svg_2" d="m505,257c0,34.8 -0.7,69.7 0.2,104.5c1.5,61.6 -37.2,109.2 -86.5,130.4c-19.8,8.5 -40.6,13 -62.1,13c-67.3,0.1 -134.7,1 -202,-0.3c-50.7,-1 -92.4,-22.2 -122.3,-64c-15.7,-22 -23.2,-47 -23.2,-74.1c0,-71.7 0,-143.3 0,-215c0,-58.5 28.5,-99.4 79.1,-126c22,-11.5 45.9,-16.4 70.8,-16.5c65.3,0 130.7,-0.4 196,0.2c50.7,0.4 93,19.8 124.2,60.6c17.4,22.8 25.8,49 25.8,77.8c0,36.4 0,72.9 0,109.4zm-459,0c0,36.7 0,73.3 0,110c0,16.4 3.8,31.8 12.3,45.7c22.3,36.5 56,54.3 97.8,55c67.1,1 134.3,0.4 201.5,0.2c16.5,0 32.5,-3.4 47.4,-10.5c40.6,-19.4 63.3,-50.3 63.1,-96.7c-0.4,-71 -0.1,-142 -0.1,-213c0,-20.1 -5.7,-38.5 -17.6,-54.7c-23,-31.1 -54.8,-46.4 -92.8,-46.8c-67,-0.8 -134,-0.3 -201,-0.2c-14.3,0 -28.1,2.9 -41.5,7.9c-36.8,13.7 -71,48.4 -69.4,99.5c1.2,34.6 0.3,69.1 0.3,103.6z"/>
  <path fill="#ffffff" id="svg_3" d="m257.6,363c-64.5,0 -116.5,-51.4 -116.6,-115.4c-0.1,-63 52.3,-114.6 116.4,-114.6c64.3,-0.1 116.5,51.4 116.6,114.9c0,63.4 -52.1,115 -116.4,115.1zm0,-37c43.9,0 79.5,-35.1 79.4,-78.3c-0.1,-42.8 -35.7,-77.8 -79.4,-77.8c-43.9,0 -79.7,34.9 -79.7,78c0.1,43.2 35.8,78.2 79.7,78.1z"/>
  <path fill="#ffffff" id="svg_4" d="m387.5,98c13.5,0 24.5,11.5 24.5,25.6c-0.1,14.1 -11.2,25.5 -24.7,25.4c-13.3,-0.1 -24.2,-11.5 -24.2,-25.3c-0.1,-14.1 10.9,-25.7 24.4,-25.7z"/>
 </g>
</svg>